<svg width="295" height="65" viewBox="0 0 295 65" fill="none" xmlns="http://www.w3.org/2000/svg">
<g clip-path="url(#clip0_5706_827)">
<path d="M50.78 56.4523L49.9346 52.5071C48.1927 44.3784 45.0011 36.7395 40.4472 29.7928V23.3918C42.545 21.8134 43.9043 19.3038 43.9043 16.4824V13.0254C43.9043 12.0708 43.1304 11.2969 42.1758 11.2969H40.4472V4.72852C40.4472 3.77391 39.6733 3 38.7187 3C37.7641 3 36.9902 3.77391 36.9902 4.72852V11.3152C33.8858 11.4962 31.1659 13.1293 29.5 15.5441C27.834 13.1293 25.1141 11.4962 22.0097 11.3152V4.72852C22.0097 3.77391 21.2358 3 20.2812 3C19.3266 3 18.5527 3.77391 18.5527 4.72852V11.2969H16.8242C15.8696 11.2969 15.0957 12.0708 15.0957 13.0254V16.4824C15.0957 19.3038 16.455 21.8134 18.5527 23.3918V29.7928C13.9989 36.7395 10.8072 44.3782 9.06534 52.5072L8.21998 56.4523C8.03929 57.2957 8.50795 58.1433 9.31851 58.4386C15.8059 60.8018 22.5958 62 29.5 62C36.4041 62 43.1942 60.8018 49.6814 58.4386C50.492 58.1433 50.9606 57.2958 50.78 56.4523V56.4523ZM37.5664 14.7539H40.4472V16.4824C40.4472 19.3417 38.121 21.668 35.2617 21.668H31.2285V21.0918C31.2285 17.5971 34.0717 14.7539 37.5664 14.7539ZM18.5527 14.7539H21.4336C24.9283 14.7539 27.7715 17.5971 27.7715 21.0918V21.668H23.7382C20.8789 21.668 18.5527 19.3417 18.5527 16.4824V14.7539ZM23.7382 25.125H35.2617C35.8535 25.125 36.4315 25.065 36.9902 24.9511V28.582H22.0097V24.9511C22.5684 25.065 23.1464 25.125 23.7382 25.125V25.125ZM29.5 58.543C23.502 58.543 17.5952 57.5821 11.9197 55.6855L12.4455 53.2316C14.0684 45.6586 17.0169 38.5336 21.214 32.0391L37.7858 32.0392C41.983 38.5337 44.9315 45.6586 46.5543 53.2315L47.0801 55.6855C41.4048 57.5821 35.4979 58.543 29.5 58.543Z" fill="black"/>
</g>
<path d="M81.04 27.408H83.76L86.768 35.312L89.808 27.408H92.528L88.592 37.296L92.496 46.672L100.176 27.28H103.312L93.808 50H91.312L86.8 39.28L82.256 50H79.76L70.288 27.28H73.392L81.104 46.672L84.976 37.296L81.04 27.408ZM117.855 50.16C116.255 50.16 114.804 49.84 113.503 49.2C112.201 48.56 111.071 47.696 110.111 46.608C109.172 45.4987 108.447 44.2613 107.935 42.896C107.423 41.5093 107.167 40.0907 107.167 38.64C107.167 37.1253 107.433 35.6853 107.967 34.32C108.521 32.9333 109.279 31.7067 110.239 30.64C111.22 29.552 112.361 28.6987 113.663 28.08C114.964 27.44 116.383 27.12 117.919 27.12C119.519 27.12 120.969 27.4507 122.271 28.112C123.572 28.7733 124.692 29.6587 125.631 30.768C126.569 31.8773 127.295 33.1147 127.807 34.48C128.319 35.8453 128.575 37.2427 128.575 38.672C128.575 40.1867 128.308 41.6373 127.775 43.024C127.241 44.3893 126.484 45.616 125.503 46.704C124.543 47.7707 123.412 48.6133 122.111 49.232C120.809 49.8507 119.391 50.16 117.855 50.16ZM110.079 38.64C110.079 39.792 110.26 40.912 110.623 42C111.007 43.0667 111.54 44.016 112.223 44.848C112.905 45.68 113.727 46.3413 114.687 46.832C115.647 47.3227 116.713 47.568 117.887 47.568C119.103 47.568 120.191 47.312 121.151 46.8C122.111 46.288 122.921 45.6053 123.583 44.752C124.265 43.8987 124.777 42.9387 125.119 41.872C125.481 40.8053 125.663 39.728 125.663 38.64C125.663 37.488 125.471 36.3787 125.087 35.312C124.724 34.2453 124.191 33.296 123.487 32.464C122.804 31.6107 121.983 30.9493 121.023 30.48C120.084 29.9893 119.039 29.744 117.887 29.744C116.671 29.744 115.583 30 114.623 30.512C113.663 31.0027 112.841 31.6747 112.159 32.528C111.497 33.3813 110.985 34.3413 110.623 35.408C110.26 36.4533 110.079 37.5307 110.079 38.64ZM155.424 50V32.656L147.936 46H146.176L138.656 32.656V50H135.776V27.28H138.816L147.04 42.032L155.296 27.28H158.304V50H155.424ZM173.857 27.28H176.289L185.569 50H182.497L179.809 43.344H170.273L167.617 50H164.545L173.857 27.28ZM179.169 41.104L175.073 30.608L170.849 41.104H179.169ZM190.105 47.76L204.761 29.84H190.393V27.28H208.121V29.52L193.721 47.44H208.121V50H190.105V47.76ZM215.189 50V27.28H218.069V50H215.189ZM229.581 32.592V50H226.701V27.28H229.133L243.021 45.04V27.312H245.901V50H243.277L229.581 32.592ZM263.646 50.16C262.153 50.16 260.756 49.84 259.454 49.2C258.174 48.5387 257.054 47.664 256.094 46.576C255.134 45.4667 254.388 44.2293 253.854 42.864C253.321 41.4773 253.054 40.048 253.054 38.576C253.054 37.04 253.321 35.5893 253.854 34.224C254.388 32.8373 255.124 31.6107 256.062 30.544C257.022 29.4773 258.142 28.6453 259.422 28.048C260.724 27.4293 262.132 27.12 263.646 27.12C265.844 27.12 267.657 27.5787 269.086 28.496C270.516 29.4133 271.593 30.608 272.318 32.08L270.11 33.616C269.449 32.2933 268.542 31.312 267.39 30.672C266.238 30.032 264.969 29.712 263.582 29.712C262.43 29.712 261.385 29.9573 260.446 30.448C259.508 30.9387 258.697 31.6107 258.014 32.464C257.353 33.296 256.841 34.2453 256.478 35.312C256.137 36.3787 255.966 37.488 255.966 38.64C255.966 39.856 256.158 41.008 256.542 42.096C256.948 43.1627 257.513 44.112 258.238 44.944C258.964 45.7547 259.806 46.3947 260.766 46.864C261.726 47.3333 262.761 47.568 263.87 47.568C265.172 47.568 266.409 47.2373 267.582 46.576C268.756 45.9147 269.865 44.9013 270.91 43.536V46.512C268.862 48.944 266.441 50.16 263.646 50.16ZM270.558 40.848H265.662V38.672H272.99V50H270.558V40.848Z" fill="black"/>
<defs>
<clipPath id="clip0_5706_827">
<rect width="59" height="59" fill="white" transform="translate(0 3)"/>
</clipPath>
</defs>
</svg>
